<svg width="40" height="45" viewBox="0 0 40 45" fill="none" xmlns="http://www.w3.org/2000/svg">
<path d="M39.5492 28.1431L35.3846 23.9785V18.4615C35.3798 14.649 33.9616 10.9736 31.404 8.14613C28.8465 5.31864 25.3314 3.5399 21.5385 3.15385V0H18.4615V3.15385C14.6686 3.5399 11.1535 5.31864 8.59595 8.14613C6.03843 10.9736 4.62016 14.649 4.61538 18.4615V23.9785L0.450769 28.1431C0.162232 28.4315 8.71345e-05 28.8228 0 29.2308V33.8462C0 34.2542 0.162087 34.6455 0.450605 34.934C0.739122 35.2225 1.13044 35.3846 1.53846 35.3846H12.3077V36.58C12.2742 38.5317 12.9622 40.4272 14.2397 41.9031C15.5172 43.3791 17.2944 44.3317 19.2308 44.5785C20.3003 44.6845 21.3801 44.5656 22.4009 44.2292C23.4217 43.8929 24.3607 43.3466 25.1577 42.6256C25.9547 41.9045 26.592 41.0247 27.0285 40.0425C27.465 39.0604 27.6911 37.9978 27.6923 36.9231V35.3846H38.4615C38.8696 35.3846 39.2609 35.2225 39.5494 34.934C39.8379 34.6455 40 34.2542 40 33.8462V29.2308C39.9999 28.8228 39.8378 28.4315 39.5492 28.1431ZM24.6154 36.9231C24.6154 38.1472 24.1291 39.3211 23.2636 40.1866C22.398 41.0522 21.2241 41.5385 20 41.5385C18.7759 41.5385 17.602 41.0522 16.7364 40.1866C15.8709 39.3211 15.3846 38.1472 15.3846 36.9231V35.3846H24.6154V36.9231ZM36.9231 32.3077H3.07692V29.8677L7.24154 25.7031C7.53008 25.4146 7.69222 25.0234 7.69231 24.6154V18.4615C7.69231 15.1973 8.98901 12.0668 11.2971 9.75869C13.6053 7.45055 16.7358 6.15385 20 6.15385C23.2642 6.15385 26.3947 7.45055 28.7029 9.75869C31.011 12.0668 32.3077 15.1973 32.3077 18.4615V24.6154C32.3078 25.0234 32.4699 25.4146 32.7585 25.7031L36.9231 29.8677V32.3077Z" fill="black" fill-opacity="0.5"/>
</svg>
