<svg width="60" height="60" viewBox="0 0 60 60" fill="none" xmlns="http://www.w3.org/2000/svg">
<rect width="60" height="60" rx="30" fill="#EE3C00" fill-opacity="0.25"/>
<path d="M31.9543 10V14.0461C40.756 15.1277 46.9914 23.1197 45.9088 31.9129C44.9865 39.2038 39.2523 44.9925 31.9543 45.8538V49.8598C42.9815 48.7581 51.0014 38.9835 49.8986 27.967C48.9964 18.4527 41.4377 10.9414 31.9543 10ZM27.9444 10.0601C24.0347 10.4407 20.3055 11.9429 17.2579 14.4667L20.125 17.4311C22.3706 15.6284 25.0773 14.4667 27.9444 14.0661V10.0601ZM14.431 17.2909C11.9241 20.3302 10.3813 24.0472 10 27.967H14.0099C14.3909 25.1227 15.5136 22.4186 17.298 20.1552L14.431 17.2909ZM10.02 31.973C10.421 35.8988 11.9649 39.6044 14.451 42.649L17.298 39.7847C15.5275 37.5205 14.3988 34.8224 14.03 31.973H10.02ZM20.125 42.7291L17.2579 45.4732C20.295 48.0024 24.0132 49.5774 27.9444 50V45.994C25.0921 45.6255 22.3914 44.4979 20.125 42.7291ZM30.9518 19.9549V30.4707L39.9741 35.8187L38.4704 38.2824L27.9444 31.973V19.9549H30.9518Z" fill="#EE3C00"/>
</svg>
