<svg width="29" height="40" viewBox="0 0 29 40" fill="none" xmlns="http://www.w3.org/2000/svg">
<path d="M0 40H28.5714V32.8571C28.5684 30.2059 27.5139 27.6641 25.6392 25.7894C23.7644 23.9147 21.2227 22.8602 18.5714 22.8571H10C7.34876 22.8602 4.80698 23.9147 2.93227 25.7894C1.05756 27.6641 0.0030248 30.2059 0 32.8571V40Z" fill="#00B2EE"/>
<path d="M4.28564 10C4.28564 11.9778 4.87213 13.9112 5.97095 15.5557C7.06976 17.2002 8.63155 18.4819 10.4588 19.2388C12.2861 19.9957 14.2967 20.1937 16.2365 19.8079C18.1764 19.422 19.9582 18.4696 21.3567 17.0711C22.7552 15.6725 23.7076 13.8907 24.0935 11.9509C24.4794 10.0111 24.2813 8.00043 23.5244 6.17317C22.7676 4.3459 21.4858 2.78412 19.8413 1.6853C18.1969 0.58649 16.2635 0 14.2856 0C11.6335 0 9.08994 1.05357 7.21458 2.92893C5.33921 4.8043 4.28564 7.34784 4.28564 10Z" fill="#00B2EE"/>
</svg>
