<svg width="60" height="60" viewBox="0 0 60 60" fill="none" xmlns="http://www.w3.org/2000/svg">
<rect width="60" height="60" rx="30" fill="#00B2EE" fill-opacity="0.25"/>
<path d="M18 46.6H42V40.6C41.9975 38.3729 41.1116 36.2378 39.5369 34.6631C37.9621 33.0883 35.827 32.2025 33.6 32.2H26.4C24.173 32.2025 22.0379 33.0883 20.4631 34.6631C18.8884 36.2378 18.0025 38.3729 18 40.6V46.6Z" fill="#00B2EE"/>
<path d="M21.5996 21.4C21.5996 23.0614 22.0923 24.6854 23.0153 26.0668C23.9383 27.4482 25.2502 28.5248 26.7851 29.1606C28.32 29.7964 30.0089 29.9627 31.6384 29.6386C33.2678 29.3145 34.7645 28.5145 35.9393 27.3397C37.1141 26.1649 37.9141 24.6682 38.2382 23.0388C38.5623 21.4093 38.396 19.7204 37.7602 18.1855C37.1244 16.6506 36.0478 15.3387 34.6664 14.4157C33.285 13.4927 31.661 13 29.9996 13C27.7718 13 25.6352 13.885 24.0599 15.4603C22.4846 17.0356 21.5996 19.1722 21.5996 21.4Z" fill="#00B2EE"/>
</svg>
