<svg width="24" height="22" viewBox="0 0 24 22" fill="none" xmlns="http://www.w3.org/2000/svg">
<path d="M7.57895 12.6316C9.32337 12.6316 10.9023 11.9242 12.0455 10.7811C13.1874 9.63916 13.8947 8.06021 13.8947 6.31579C13.8947 4.57137 13.1874 2.99242 12.0455 1.85053C10.9023 0.707369 9.32337 0 7.57895 0C5.83453 0 4.25558 0.707369 3.11242 1.85053C1.97053 2.99242 1.26316 4.57137 1.26316 6.31579C1.26316 8.06021 1.97053 9.63916 3.11242 10.7811C3.69829 11.3686 4.39449 11.8345 5.16101 12.1521C5.92752 12.4696 6.74925 12.6326 7.57895 12.6316ZM7.57895 21.4737C12.0227 21.4737 15.1579 20.2105 15.1579 18.9474C15.1579 16.4211 12.1844 13.8947 7.57895 13.8947C2.84211 13.8947 0 16.4211 0 18.9474C0 20.2105 2.84211 21.4737 7.57895 21.4737ZM22.7368 10.1053H20.2105V7.57895C20.2105 7.24394 20.0774 6.92265 19.8406 6.68576C19.6037 6.44887 19.2824 6.31579 18.9474 6.31579C18.6124 6.31579 18.2911 6.44887 18.0542 6.68576C17.8173 6.92265 17.6842 7.24394 17.6842 7.57895V10.1053H15.1579C14.8229 10.1053 14.5016 10.2383 14.2647 10.4752C14.0278 10.7121 13.8947 11.0334 13.8947 11.3684C13.8947 11.7034 14.0278 12.0247 14.2647 12.2616C14.5016 12.4985 14.8229 12.6316 15.1579 12.6316H17.6842V15.1579C17.6842 15.4929 17.8173 15.8142 18.0542 16.0511C18.2911 16.288 18.6124 16.4211 18.9474 16.4211C19.2824 16.4211 19.6037 16.288 19.8406 16.0511C20.0774 15.8142 20.2105 15.4929 20.2105 15.1579V12.6316H22.7368C23.0719 12.6316 23.3931 12.4985 23.63 12.2616C23.8669 12.0247 24 11.7034 24 11.3684C24 11.0334 23.8669 10.7121 23.63 10.4752C23.3931 10.2383 23.0719 10.1053 22.7368 10.1053Z" fill="#00B2EE"/>
</svg>
