<svg width="60" height="60" viewBox="0 0 60 60" fill="none" xmlns="http://www.w3.org/2000/svg">
<rect width="60" height="60" rx="30" fill="#008000" fill-opacity="0.2"/>
<path d="M22.6316 33.0526C25.5389 33.0526 28.1705 31.8737 30.0758 29.9684C31.9789 28.0653 33.1579 25.4337 33.1579 22.5263C33.1579 19.6189 31.9789 16.9874 30.0758 15.0842C28.1705 13.1789 25.5389 12 22.6316 12C19.7242 12 17.0926 13.1789 15.1874 15.0842C13.2842 16.9874 12.1053 19.6189 12.1053 22.5263C12.1053 25.4337 13.2842 28.0653 15.1874 29.9684C16.1638 30.9476 17.3241 31.7242 18.6017 32.2534C19.8792 32.7827 21.2487 33.0543 22.6316 33.0526ZM22.6316 47.7895C30.0379 47.7895 35.2632 45.6842 35.2632 43.5789C35.2632 39.3684 30.3074 35.1579 22.6316 35.1579C14.7368 35.1579 10 39.3684 10 43.5789C10 45.6842 14.7368 47.7895 22.6316 47.7895ZM47.8947 28.8421H43.6842V24.6316C43.6842 24.0732 43.4624 23.5377 43.0676 23.1429C42.6728 22.7481 42.1373 22.5263 41.5789 22.5263C41.0206 22.5263 40.4851 22.7481 40.0903 23.1429C39.6955 23.5377 39.4737 24.0732 39.4737 24.6316V28.8421H35.2632C34.7048 28.8421 34.1693 29.0639 33.7745 29.4587C33.3797 29.8535 33.1579 30.389 33.1579 30.9474C33.1579 31.5057 33.3797 32.0412 33.7745 32.436C34.1693 32.8308 34.7048 33.0526 35.2632 33.0526H39.4737V37.2632C39.4737 37.8215 39.6955 38.357 40.0903 38.7518C40.4851 39.1466 41.0206 39.3684 41.5789 39.3684C42.1373 39.3684 42.6728 39.1466 43.0676 38.7518C43.4624 38.357 43.6842 37.8215 43.6842 37.2632V33.0526H47.8947C48.4531 33.0526 48.9886 32.8308 49.3834 32.436C49.7782 32.0412 50 31.5057 50 30.9474C50 30.389 49.7782 29.8535 49.3834 29.4587C48.9886 29.0639 48.4531 28.8421 47.8947 28.8421Z" fill="#008000"/>
</svg>
